<svg width="58" height="29" viewBox="0 0 58 29" fill="none" xmlns="http://www.w3.org/2000/svg">
<path d="M9.11133 28.1325V16.9917H13.1779C14.0069 16.9917 14.6704 17.1045 15.1718 17.3302C15.6715 17.5558 16.0614 17.9027 16.3449 18.3725C16.63 18.839 16.7709 19.329 16.7709 19.8426C16.7709 20.3158 16.6447 20.7654 16.3957 21.1847C16.145 21.6056 15.7665 21.9441 15.2603 22.2034C15.9156 22.4005 16.4203 22.7389 16.7709 23.2155C17.1248 23.6903 17.3001 24.2528 17.3001 24.9011C17.3001 25.4248 17.192 25.9097 16.9773 26.3577C16.7643 26.8073 16.4989 27.1508 16.1827 27.395C15.8681 27.6358 15.4716 27.821 14.9981 27.9456C14.5213 28.0702 13.9381 28.1325 13.2467 28.1325H9.11133ZM10.5498 21.6747H12.8928C13.5285 21.6747 13.9856 21.6309 14.2608 21.545C14.6262 21.4339 14.9015 21.247 15.0866 20.9876C15.2701 20.7283 15.3635 20.405 15.3635 20.0127C15.3635 19.6422 15.2783 19.3155 15.103 19.036C14.9326 18.7531 14.6852 18.5577 14.3641 18.455C14.0446 18.3506 13.4941 18.2984 12.7175 18.2984H10.5498V21.6747ZM10.5498 26.8241H13.2499C13.7136 26.8241 14.0397 26.8073 14.2281 26.7702C14.5558 26.7113 14.8343 26.6103 15.0555 26.4671C15.2783 26.324 15.4585 26.1169 15.6027 25.8441C15.7469 25.573 15.8173 25.2581 15.8173 24.9028C15.8173 24.4868 15.7141 24.1248 15.5044 23.8166C15.298 23.5085 15.0096 23.2929 14.6426 23.1683C14.2756 23.0437 13.7464 22.9814 13.0582 22.9814H10.5498V26.8241Z" fill="white"/>
<path d="M18.6016 24.0948C18.6016 22.6046 19.0046 21.4999 19.8156 20.7809C20.489 20.1848 21.3131 19.8867 22.2847 19.8867C23.3628 19.8867 24.2459 20.2488 24.9307 20.9762C25.6156 21.6986 25.958 22.7022 25.958 23.9803C25.958 25.0176 25.8073 25.8326 25.5042 26.4254C25.2011 27.0198 24.7603 27.4812 24.1803 27.8112C23.602 28.1396 22.9696 28.303 22.2847 28.303C21.1853 28.303 20.2973 27.9426 19.619 27.2185C18.9407 26.4961 18.6016 25.4538 18.6016 24.0948ZM19.9647 24.0965C19.9647 25.1288 20.1843 25.9017 20.6217 26.4136C21.0641 26.9255 21.6162 27.1831 22.2847 27.1831C22.9466 27.1831 23.4955 26.9255 23.9379 26.4102C24.3769 25.8949 24.5965 25.1086 24.5965 24.0527C24.5965 23.0575 24.3737 22.3031 23.9329 21.7929C23.4906 21.2793 22.9417 21.0217 22.2847 21.0217C21.6162 21.0217 21.0641 21.276 20.6217 21.7879C20.1843 22.2981 19.9647 23.0676 19.9647 24.0965Z" fill="white"/>
<path d="M27.4902 28.1325V16.9917H28.8223V28.1325H27.4902Z" fill="white"/>
<path d="M36.2436 25.5177L37.6199 25.7047C37.4053 26.5264 37.0055 27.168 36.4189 27.621C35.834 28.0756 35.0869 28.303 34.176 28.303C33.0307 28.303 32.123 27.9409 31.4513 27.2135C30.7812 26.4911 30.4453 25.4723 30.4453 24.1622C30.4453 22.8083 30.7828 21.7559 31.4628 21.0099C32.1411 20.2605 33.0209 19.8867 34.1039 19.8867C35.1508 19.8867 36.0061 20.2521 36.6696 20.9863C37.3332 21.7188 37.6658 22.7511 37.6658 24.0814C37.6658 24.1622 37.6625 24.2834 37.6576 24.4451H31.8085C31.8576 25.3291 32.1001 26.0078 32.5392 26.4776C32.975 26.9474 33.5239 27.1831 34.176 27.1831C34.6642 27.1831 35.0804 27.0501 35.4228 26.7857C35.7685 26.5214 36.0405 26.0987 36.2436 25.5177ZM31.8838 23.3253H36.2584C36.1994 22.645 36.0306 22.1364 35.7554 21.798C35.3343 21.2709 34.7838 21.0065 34.1104 21.0065C33.5009 21.0065 32.9881 21.217 32.572 21.6363C32.1591 22.0573 31.9281 22.6197 31.8838 23.3253Z" fill="white"/>
<path d="M42.1917 26.9105L42.3736 28.1196C42 28.2004 41.6641 28.2408 41.3725 28.2408C40.8892 28.2408 40.5172 28.1633 40.2486 28.0051C39.9848 27.8468 39.798 27.6413 39.6882 27.3854C39.5801 27.1294 39.5277 26.5889 39.5277 25.7671V21.1161H38.543V20.0569H39.5277V18.0615L40.8597 17.2397V20.0569H42.1917V21.1161H40.8597V25.8446C40.8597 26.2369 40.8826 26.4878 40.9301 26.599C40.976 26.7118 41.0514 26.7994 41.1579 26.8667C41.2627 26.9307 41.4151 26.9661 41.6117 26.9661C41.7575 26.9661 41.9525 26.9475 42.1917 26.9105Z" fill="white"/>
<path d="M43.0078 24.0948C43.0078 22.6046 43.4125 21.4999 44.2219 20.7809C44.8953 20.1848 45.721 19.8867 46.691 19.8867C47.769 19.8867 48.6521 20.2488 49.3386 20.9762C50.0218 21.6986 50.3659 22.7022 50.3659 23.9803C50.3659 25.0176 50.2135 25.8326 49.9104 26.4254C49.6073 27.0198 49.1666 27.4812 48.5866 27.8112C48.0082 28.1396 47.3758 28.303 46.691 28.303C45.5916 28.303 44.7036 27.9426 44.0253 27.2185C43.347 26.4961 43.0078 25.4538 43.0078 24.0948ZM44.371 24.0965C44.371 25.1288 44.5905 25.9017 45.0296 26.4136C45.4703 26.9255 46.0241 27.1831 46.691 27.1831C47.3529 27.1831 47.9034 26.9255 48.3441 26.4102C48.7832 25.8949 49.0027 25.1086 49.0027 24.0527C49.0027 23.0575 48.7816 22.3031 48.3392 21.7929C47.8968 21.2793 47.348 21.0217 46.691 21.0217C46.0241 21.0217 45.4703 21.276 45.0296 21.7879C44.5905 22.2981 44.371 23.0676 44.371 24.0965Z" fill="white"/>
<path d="M0.902344 0.287109V27.8613H1.98491V0.287109H0.902344Z" fill="white"/>
<path d="M2.93177 0.287109V27.8613H4.87336V0.287109H2.93177Z" fill="white"/>
<path d="M6.74563 0.287109V15.0896H7.8282V0.287109H6.74563Z" fill="white"/>
<path d="M8.30111 0.287109V15.0896H9.13752V0.287109H8.30111Z" fill="white"/>
<path d="M9.88064 0.287109V15.0896H11.8222V0.287109H9.88064Z" fill="white"/>
<path d="M12.2709 0.287109V15.0896H13.356V0.287109H12.2709Z" fill="white"/>
<path d="M14.931 0.287109V15.0896H18.4324V0.287109H14.931Z" fill="white"/>
<path d="M19.5351 0.287109V15.0896H20.6177V0.287109H19.5351Z" fill="white"/>
<path d="M21.5645 0.287109V15.0896H23.5061V0.287109H21.5645Z" fill="white"/>
<path d="M25.3766 0.287109V15.0896H26.4592V0.287109H25.3766Z" fill="white"/>
<path d="M26.9339 0.287109V15.0896H27.7703V0.287109H26.9339Z" fill="white"/>
<path d="M29.1433 0.287109V15.0896H31.0848V0.287109H29.1433Z" fill="white"/>
<path d="M32.9553 0.287109V15.0896H34.0404V0.287109H32.9553Z" fill="white"/>
<path d="M34.5144 0.287109V15.0896H35.3483V0.287109H34.5144Z" fill="white"/>
<path d="M36.0903 0.287109V15.0896H38.0319V0.287109H36.0903Z" fill="white"/>
<path d="M38.4815 0.287109V15.0896H39.5665V0.287109H38.4815Z" fill="white"/>
<path d="M41.0098 0.287109V15.0896H42.0949V0.287109H41.0098Z" fill="white"/>
<path d="M42.5644 0.287109V15.0896H43.4008V0.287109H42.5644Z" fill="white"/>
<path d="M44.143 0.287109V15.0896H46.0846V0.287109H44.143Z" fill="white"/>
<path d="M46.5377 0.287109V15.0896H47.6203V0.287109H46.5377Z" fill="white"/>
<path d="M48.5671 0.287109V15.0896H52.066V0.287109H48.5671Z" fill="white"/>
<path d="M53.1685 0.287109V27.8613H54.2536V0.287109H53.1685Z" fill="white"/>
<path d="M55.1988 0.287109V27.8613H57.1404V0.287109H55.1988Z" fill="white"/>
</svg>
