<svg width="32" height="33" viewBox="0 0 32 33" fill="none" xmlns="http://www.w3.org/2000/svg">
<g clip-path="url(#clip0_703_5431)">
<path d="M31.841 16.1879C31.841 7.40831 24.7198 0.287109 15.9402 0.287109C7.16063 0.287109 0.0394287 7.40831 0.0394287 16.1879C0.0394287 24.1228 5.85316 30.7036 13.4557 31.8962V20.7842H9.41842V16.1879H13.4557V12.6848C13.4557 8.70025 15.8315 6.49836 19.462 6.49836C21.2012 6.49836 23.0211 6.80892 23.0211 6.80892V10.722H21.0148C19.0396 10.722 18.4247 11.9487 18.4247 13.2065V16.1879H22.8347L22.1297 20.7842H18.4247V31.8962C26.0273 30.7036 31.841 24.1259 31.841 16.1879Z" fill="white"/>
<path d="M22.1297 20.7839L22.8346 16.1876H18.4246V13.2062C18.4246 11.9484 19.0396 10.7217 21.0147 10.7217H23.021V6.80861C23.021 6.80861 21.2011 6.49805 19.4619 6.49805C15.8314 6.49805 13.4556 8.69683 13.4556 12.6845V16.1876H9.41833V20.7839H13.4556V31.8958C14.2662 32.0232 15.0954 32.0884 15.9401 32.0884C16.7849 32.0884 17.6141 32.0201 18.4246 31.8958V20.7839H22.1297Z" fill="#2B0A00"/>
</g>
<defs>
<clipPath id="clip0_703_5431">
<rect width="31.8016" height="31.8016" fill="white" transform="translate(0.0385742 0.287109)"/>
</clipPath>
</defs>
</svg>
