<svg width="85" height="28" viewBox="0 0 85 28" fill="none" xmlns="http://www.w3.org/2000/svg">
<path fill-rule="evenodd" clip-rule="evenodd" d="M29.2384 4.39083H32.4066V5.29256H30.37V6.72003H32.3316V7.62128H30.37V10.1007H29.2384V4.39083ZM34.2927 7.24576C34.2927 6.26892 34.7452 5.21746 35.8768 5.21746C37.0079 5.21746 37.5363 6.26892 37.5363 7.24576C37.5363 8.2977 37.0838 9.34916 35.8768 9.34916C34.6698 9.34916 34.2927 8.29722 34.2927 7.24576ZM33.0857 7.24576C33.0857 8.97364 34.066 10.2509 35.8768 10.2509C37.6871 10.2509 38.7433 8.97364 38.7433 7.24576C38.7433 5.51788 37.6871 4.31573 35.8768 4.31573C34.066 4.31573 33.0857 5.5174 33.0857 7.24576ZM40.8552 5.29256H41.2323C41.7601 5.29256 42.4388 5.36767 42.4388 6.04361C42.4388 6.79465 41.7601 6.87024 41.2323 6.87024H40.8552V5.29256ZM39.6482 10.1007H40.8552V7.77196H41.1569C41.6847 7.77196 41.8355 7.9217 41.9868 8.3728L42.6655 10.1007H43.948L43.0426 7.9217C42.9676 7.62128 42.7414 7.32086 42.4393 7.32086V7.24576C43.1934 7.17065 43.6468 6.64492 43.6468 5.9685C43.6468 4.31573 42.1377 4.39083 40.9311 4.39083H39.6487L39.6482 10.1007ZM44.7774 4.39083H48.2477V5.29256H45.984V6.72003H48.0205V7.62128H45.984V9.19895H48.2477V10.1007H44.7774V4.39083ZM52.4711 5.44277C52.1699 5.29256 51.717 5.21746 51.3399 5.21746C50.9629 5.21746 50.4345 5.36767 50.4345 5.9685C50.4345 7.02044 52.9245 6.56981 52.9245 8.52301C52.9245 9.72516 51.9432 10.2509 50.8121 10.2509C50.1339 10.2509 49.9067 10.1758 49.3034 10.0256L49.3793 8.97364C49.8313 9.19895 50.2837 9.34964 50.7367 9.34964C51.1886 9.34964 51.717 9.12385 51.717 8.59811C51.717 7.47155 49.228 7.92169 49.228 6.04408C49.228 4.76683 50.2083 4.3162 51.2645 4.3162C51.7165 4.3162 52.1699 4.39131 52.6219 4.46641L52.4711 5.44277ZM55.0359 5.29256H53.3765V4.39083H57.8265V5.29256H56.1671V10.1007H55.0359V5.29256ZM32.3316 14.0071C31.9546 13.8569 31.5017 13.7067 31.1246 13.7067C30.7476 13.7067 30.2197 13.9315 30.2197 14.5333C30.2197 15.5096 32.7841 15.1341 32.7841 17.0122C32.7841 18.2895 31.7279 18.7406 30.5967 18.7406C29.9935 18.7406 29.6914 18.665 29.0881 18.5143L29.2384 17.5379C29.616 17.6881 30.0684 17.8388 30.5209 17.8388C30.9733 17.8388 31.5771 17.6126 31.5771 17.0878C31.5771 16.0358 29.0127 16.486 29.0127 14.6079C29.0127 13.3311 29.9935 12.8049 31.0492 12.8049C31.5017 12.8049 31.9546 12.88 32.407 13.0302L32.3316 14.0071ZM34.8206 13.8569H33.1611V12.9551H37.6871V13.8569H36.0271V18.6645H34.8206V13.8569ZM38.3658 12.9551H41.7601V13.8569H39.5723V15.2087H41.6093V16.1861H39.5723V17.7632H41.8355V18.6645H38.3658V12.9551ZM42.3634 12.9551H43.6463L44.7016 17.5379L45.6828 12.9551H47.2664L48.2477 17.5379H48.3226L49.3788 12.9551H50.5104L49.0018 18.6645H47.4926L46.4369 14.0817L45.4556 18.6645H43.9475L42.3634 12.9551ZM54.0556 16.4109H52.3961L53.2256 14.0817L54.0556 16.4109ZM50.3591 18.6645H51.5657L52.0186 17.3126H54.3563L54.8846 18.6645H56.1671L53.9043 12.9551H52.6219L50.3591 18.6645ZM57.9778 13.8569H58.3549C58.8832 13.8569 59.5624 13.8569 59.5624 14.6079C59.5624 15.2843 58.8832 15.3589 58.3549 15.3589H57.9778V13.8569ZM56.7703 18.6645H57.9778V16.2607H58.3549C58.8068 16.2607 58.9581 16.4109 59.109 16.8615L59.8631 18.665H61.1455L60.1652 16.4114C60.0893 16.1861 59.8631 15.8852 59.5619 15.8105C60.316 15.7349 60.7684 15.1341 60.7684 14.4577C60.7684 12.8805 59.2598 12.9556 58.0528 12.9556H56.7703V18.6645ZM63.1071 13.8569H63.7853C64.6907 13.8569 65.671 14.5333 65.671 15.8105C65.671 17.0122 64.6907 17.7632 63.7853 17.7632H63.1071V13.8569ZM61.9759 18.6645H63.5595C65.2939 18.6645 66.8785 18.0637 66.8785 15.8101C66.8785 13.4809 65.2939 12.9551 63.5595 12.9551H61.9759V18.6645ZM71.0269 14.0071C70.6499 13.8569 70.2728 13.7067 69.8204 13.7067C69.4433 13.7067 68.915 13.9315 68.915 14.5333C68.915 15.5096 71.4799 15.1341 71.4799 17.0122C71.4799 18.2895 70.4237 18.7406 69.292 18.7406C68.6888 18.7406 68.3867 18.665 67.7834 18.5143L67.9342 17.5379C68.3112 17.6881 68.7637 17.8388 69.2166 17.8388C69.6686 17.8388 70.2719 17.6126 70.2719 17.0878C70.2719 16.0358 67.708 16.486 67.708 14.6079C67.708 13.3311 68.6883 12.8049 69.7435 12.8049C70.2719 12.8049 70.7248 12.88 71.1019 13.0302L71.0269 14.0071ZM72.5361 12.9551H73.6677V15.2087H76.0053V12.9551H77.1365V18.6645H76.0053V16.1861H73.6677V18.6645H72.5361V12.9551ZM78.344 12.9551H79.5505V18.6645H78.344V12.9551ZM81.8142 13.8569H82.2662C82.7945 13.8569 83.3224 14.0822 83.3224 14.7586C83.3224 15.3594 82.7941 15.5847 82.2662 15.5847H81.8142V13.8569ZM80.6817 18.6645H81.8138V16.4855H82.3411C83.5486 16.4855 84.5289 16.0354 84.5289 14.683C84.5289 13.2551 83.3978 12.9547 82.1154 12.9547H80.6821L80.6817 18.6645ZM33.3874 27.0791C33.0103 27.2293 32.5574 27.3044 32.1049 27.3044C30.2192 27.3044 28.9368 26.4026 28.9368 24.449C28.9368 22.4216 30.1438 21.3692 32.1049 21.3692C32.4824 21.3692 33.0103 21.4438 33.3874 21.5945L33.3119 22.5709C32.8595 22.3456 32.4824 22.2709 32.03 22.2709C30.8984 22.2709 30.1443 23.1727 30.1443 24.3739C30.1443 25.5004 30.823 26.4022 32.1054 26.4022C32.5579 26.4022 33.0862 26.3275 33.3878 26.1769L33.3874 27.0791ZM35.1976 24.2997C35.1976 23.3224 35.6501 22.2714 36.7817 22.2714C37.9128 22.2714 38.4412 23.3224 38.4412 24.2997C38.4412 25.3507 37.9887 26.4026 36.7817 26.4026C35.6501 26.4026 35.1976 25.3507 35.1976 24.2997ZM33.9906 24.2997C33.9906 26.1022 34.9714 27.3044 36.7817 27.3044C38.592 27.3044 39.6477 26.0271 39.6477 24.2997C39.6477 22.5714 38.5915 21.3697 36.7817 21.3697C34.9714 21.3697 33.9906 22.5709 33.9906 24.2997ZM40.6285 21.4443H41.7601V24.7499C41.7601 25.7262 42.1372 26.4026 42.9672 26.4026C43.8725 26.4026 44.1747 25.7262 44.1747 24.7499V21.4443H45.3812V25.1254C45.3812 26.628 44.4758 27.3044 42.9676 27.3044C41.5344 27.3044 40.629 26.628 40.629 25.1254L40.6285 21.4443ZM46.5873 21.4443H48.0205L50.2083 25.7262V21.4443H51.3395V27.2297H49.9062L47.7194 22.8718V27.2297H46.5873V21.4443ZM56.7703 27.0791C56.3933 27.2293 55.9408 27.3044 55.4889 27.3044C53.6022 27.3044 52.3198 26.4026 52.3198 24.449C52.3198 22.4216 53.5273 21.3692 55.4889 21.3692C55.8659 21.3692 56.3933 21.4438 56.7703 21.5945L56.6954 22.5709C56.2434 22.3456 55.8659 22.2709 55.4889 22.2709C54.2814 22.2709 53.5273 23.1727 53.5273 24.3739C53.5273 25.5004 54.2814 26.4022 55.4889 26.4022C55.9408 26.4022 56.4692 26.3275 56.7703 26.1769V27.0791ZM57.5254 21.4443H58.7319V27.2297H57.5254V21.4443ZM59.9394 21.4443H61.0706V26.328H63.3333V27.2297H59.9394V21.4443ZM22.2989 3.71489C23.1284 3.71489 23.883 3.03847 23.883 2.13722C23.883 1.23597 23.1284 0.55955 22.2989 0.55955C21.394 0.55955 20.6394 1.23597 20.6394 2.13722C20.6394 3.03847 21.394 3.71489 22.2989 3.71489ZM22.2989 3.414C21.5443 3.414 20.9411 2.88826 20.9411 2.13674C20.9411 1.46032 21.5443 0.859967 22.2989 0.859967C22.9776 0.859967 23.5808 1.4608 23.5808 2.13674C23.5813 2.88826 22.9781 3.414 22.2989 3.414ZM22.7513 2.43764C22.6759 2.66295 22.5251 2.73806 22.3743 2.73806C21.9973 2.73806 21.8464 2.43764 21.8464 2.13722C21.8464 1.8368 21.9973 1.53639 22.2989 1.53639C22.5251 1.53639 22.6759 1.61149 22.7513 1.8368H23.053C23.053 1.46128 22.7513 1.23597 22.2989 1.23597C21.771 1.23597 21.4689 1.61149 21.4689 2.13722C21.4689 2.66343 21.7706 3.03895 22.3738 3.03895C22.6755 3.03895 23.053 2.81364 23.053 2.43812L22.7513 2.43764ZM7.21281 24.8245C8.11771 24.8245 8.49476 24.8245 8.64606 25.6516H8.87228C8.87228 24.9752 8.87228 24.2997 8.94769 23.6233H8.72147C8.49476 24.2997 8.04231 24.3743 7.28822 24.3743H6.53365V22.3461H7.21281C8.1936 22.3461 8.94769 22.346 8.94769 23.398H9.24933L9.47555 21.9705H4.12009V22.1958C5.17629 22.346 5.32711 22.2714 5.32711 23.6984V25.5019C5.32711 26.9293 5.17629 26.8547 4.12009 27.0044V27.2307H7.9669V27.0044C6.45824 26.9298 6.53365 26.5543 6.53365 25.5019V24.8255H7.21281V24.8245ZM14.3032 22.1954C13.8507 21.97 13.3224 21.8954 12.7945 21.8954C11.6629 21.8954 10.5318 22.4216 10.5318 23.4726C10.5318 24.9752 13.5491 24.9001 13.5491 26.1773C13.5491 26.7035 13.0966 27.0035 12.4933 27.0035C11.4371 27.0035 10.7585 26.1773 10.4563 25.4263H10.1547L10.4563 27.0035C10.9842 27.2298 11.6634 27.379 12.2666 27.379C13.4737 27.379 14.6802 26.9289 14.6802 25.8018C14.6802 24.149 11.7383 24.2992 11.7383 23.022C11.7383 22.5709 12.1153 22.1949 12.6432 22.1949C13.624 22.1949 13.7748 22.9459 14.001 23.5477H14.2273L14.3032 22.1954ZM21.6202 22.2709C20.9415 21.9701 20.187 21.8954 19.4329 21.8954C17.4718 21.8954 15.5861 22.8718 15.5861 24.6752C15.5861 26.4778 17.3964 27.379 19.3575 27.379C20.0366 27.379 20.7153 27.2298 21.3945 27.0035L21.9977 25.4263L21.6961 25.3507C21.2437 26.1778 20.6399 27.0035 19.4334 27.0035C17.9247 27.0035 17.0947 25.6516 17.0947 24.5246C17.0947 23.3975 17.8493 22.1954 19.3575 22.1954C20.4891 22.1954 21.0924 22.8718 21.3186 23.7735H21.6202V22.2709ZM16.2643 17.0117C16.1889 19.1907 16.5659 20.1671 15.3594 20.092C9.85308 19.8666 10.5318 21.0683 10.4563 16.5611L7.89197 16.9366C6.91117 17.0112 6.23249 15.2083 7.96738 15.0585C12.5688 14.6074 12.4179 13.5555 12.3425 18.2139H14.379V15.0585C14.379 14.5323 14.9823 14.1568 15.4348 14.1568C16.3402 14.1568 16.2647 15.6594 18.2259 15.6594C19.5078 15.5838 20.4132 14.6074 20.4132 13.3302C20.4132 10.7757 18.5275 11.7525 18.5275 10.4001C18.5275 10.0997 18.6783 9.87441 18.7537 9.6491C19.2062 8.52253 18.9045 7.09507 17.9237 6.34354C17.3205 5.81781 16.1889 5.74271 16.1135 5.1414C16.038 4.01483 15.8118 3.41352 14.6048 2.73758C13.7748 2.28695 12.4929 2.36205 11.6629 2.88779C8.79688 4.61567 6.60906 13.18 5.85497 16.7113C5.70415 17.4623 5.62874 18.5894 4.72384 18.5894C4.27138 18.5894 4.04468 18.2885 3.74304 17.9886C2.68732 16.861 1.93275 16.1095 1.02784 15.0585C0.65032 14.683 0.197867 14.3075 0.122458 13.7057C0.0470497 13.2551 0.574911 12.804 1.10325 12.804C1.63112 12.804 1.85734 13.2546 2.68732 14.0807C3.29059 14.8318 3.366 14.9078 4.19598 15.7335C4.34679 15.2073 4.4222 14.7572 4.57302 14.307C5.17677 11.9027 5.78004 9.49841 6.76084 7.1697C7.81656 4.46546 9.55192 0.558594 13.1725 0.558594C14.3795 0.558594 15.5107 1.00922 16.4915 1.83537C17.0947 2.36158 17.4723 2.96241 17.7734 3.78856C17.7734 3.86367 17.7734 3.86366 17.8488 4.16408C17.9242 4.23919 17.9996 4.23919 18.1504 4.31429C18.3013 4.3894 18.5275 4.4645 18.6783 4.61471C20.0361 5.51596 20.8661 6.71811 20.7902 8.44599C20.7902 9.49745 20.7148 9.49745 20.6394 9.94856C20.7148 10.0237 21.2427 10.3992 21.4694 10.7001C22.0727 11.4511 22.2994 12.3529 22.2994 13.3297C22.2994 15.5828 20.4891 17.4619 18.1504 17.4619C17.4718 17.4633 16.868 17.3872 16.2643 17.0117Z" fill="#00A470"/>
</svg>
