<svg width="32" height="33" viewBox="0 0 32 33" fill="none" xmlns="http://www.w3.org/2000/svg">
<path d="M31.9714 16.1879C31.9714 7.40614 24.8524 0.287109 16.0706 0.287109C7.28883 0.287109 0.1698 7.40614 0.1698 16.1879C0.1698 24.9697 7.28883 32.0887 16.0706 32.0887C24.8524 32.0887 31.9714 24.9697 31.9714 16.1879Z" fill="white"/>
<path d="M12.2309 9.02346C12.2309 10.0849 11.3108 10.9454 10.1759 10.9454C9.04099 10.9454 8.12097 10.0849 8.12097 9.02346C8.12097 7.96202 9.04099 7.10156 10.1759 7.10156C11.3108 7.10156 12.2309 7.96202 12.2309 9.02346Z" fill="#2B0A00"/>
<path d="M8.401 12.3584H11.9137V23.0027H8.401V12.3584Z" fill="#2B0A00"/>
<path d="M17.5692 12.3581H14.0565V23.0024H17.5692C17.5692 23.0024 17.5692 19.6514 17.5692 17.5563C17.5692 16.2986 17.9987 15.0355 19.712 15.0355C21.6482 15.0355 21.6367 16.6813 21.6276 17.9563C21.6158 19.6228 21.6439 21.3236 21.6439 23.0024H25.1566V17.3845C25.1269 13.7974 24.1921 12.1445 21.117 12.1445C19.2908 12.1445 18.1588 12.9736 17.5692 13.7237V12.3581Z" fill="#2B0A00"/>
</svg>
