<svg width="32" height="33" viewBox="0 0 32 33" fill="none" xmlns="http://www.w3.org/2000/svg">
<path d="M0.0202637 16.0851V16.9264C0.239713 24.9972 6.73785 31.4771 14.4734 32.0867H16.8508C24.6291 31.471 31.0175 24.9363 31.2308 16.9142V16.0851C31.0175 7.92284 24.4096 1.30278 16.4424 0.894365C7.87167 0.461562 0.258 7.33764 0.0202637 16.0851Z" fill="white"/>
<path d="M15.6996 8.71562C18.1866 8.71562 18.4792 8.72171 19.4668 8.77048C20.375 8.80705 20.8627 8.96555 21.1919 9.09356C21.6247 9.26424 21.9356 9.4715 22.2586 9.80067C22.5817 10.1298 22.789 10.4468 22.9597 10.8857C23.0877 11.221 23.234 11.7209 23.2827 12.6474C23.3315 13.6471 23.3376 13.9458 23.3376 16.4756C23.3376 19.0054 23.3315 19.304 23.2827 20.3038C23.2462 21.2242 23.0938 21.7302 22.9597 22.0655C22.789 22.5043 22.5878 22.8213 22.2586 23.1505C21.9356 23.4797 21.6247 23.6869 21.1919 23.8576C20.8627 23.9917 20.3689 24.1441 19.4668 24.1807C18.4853 24.2295 18.1866 24.2356 15.6996 24.2356C13.2125 24.2356 12.9199 24.2295 11.9323 24.1807C11.0241 24.1441 10.5364 23.9856 10.2072 23.8576C9.77442 23.6869 9.46353 23.4797 9.14046 23.1505C8.81738 22.8213 8.61012 22.5043 8.43944 22.0655C8.31143 21.7302 8.16513 21.2303 8.11636 20.3038C8.06759 19.304 8.0615 19.0054 8.0615 16.4756C8.0615 13.9458 8.06759 13.6471 8.11636 12.6474C8.15293 11.7269 8.30533 11.221 8.43944 10.8857C8.61012 10.4468 8.81128 10.1298 9.14046 9.80067C9.46353 9.4715 9.77442 9.26424 10.2072 9.09356C10.5364 8.95945 11.0302 8.80705 11.9323 8.77048C12.9138 8.72781 13.2125 8.71562 15.6996 8.71562ZM15.6996 7.00879C13.1698 7.00879 12.8528 7.02098 11.8653 7.06975C10.8778 7.11851 10.195 7.27701 9.60374 7.50865C8.98806 7.75248 8.46992 8.07556 7.95787 8.60589C7.43972 9.13623 7.12274 9.66047 6.885 10.2883C6.65336 10.8857 6.49487 11.5807 6.4522 12.5865C6.40343 13.5923 6.39734 13.9153 6.39734 16.4878C6.39734 19.0602 6.40953 19.3833 6.4522 20.3891C6.50097 21.3949 6.65946 22.0837 6.885 22.6872C7.12274 23.309 7.43972 23.8393 7.95787 24.3697C8.47601 24.9 8.99416 25.2231 9.60374 25.4669C10.195 25.7047 10.8778 25.8631 11.8653 25.9058C12.8589 25.9546 13.1759 25.9668 15.6996 25.9668C18.2232 25.9668 18.5463 25.9546 19.5338 25.9058C20.5213 25.857 21.2041 25.6986 21.7954 25.4669C22.411 25.2231 22.9292 24.9 23.4412 24.3697C23.9594 23.8393 24.2764 23.3151 24.5141 22.6872C24.7457 22.0898 24.9042 21.3949 24.9469 20.3891C24.9957 19.3833 25.0018 19.0602 25.0018 16.4878C25.0018 13.9153 24.9896 13.5923 24.9469 12.5865C24.8981 11.5807 24.7396 10.8918 24.5141 10.2883C24.2764 9.66656 23.9594 9.13623 23.4412 8.60589C22.9231 8.07556 22.405 7.75248 21.7954 7.50865C21.2041 7.27091 20.5213 7.11242 19.5338 7.06975C18.5463 7.02098 18.2232 7.00879 15.6996 7.00879Z" fill="#2B0A00"/>
<path d="M15.7012 11.6172C13.0557 11.6172 10.9221 13.7934 10.9221 16.4816C10.9221 19.1699 13.0618 21.3461 15.7012 21.3461C18.3407 21.3461 20.4804 19.1699 20.4804 16.4816C20.4804 13.7934 18.3407 11.6172 15.7012 11.6172ZM15.7012 19.6393C13.9883 19.6393 12.5985 18.2311 12.5985 16.4816C12.5985 14.7321 13.9883 13.324 15.7012 13.324C17.4142 13.324 18.804 14.7321 18.804 16.4816C18.804 18.2311 17.4142 19.6393 15.7012 19.6393Z" fill="#2B0A00"/>
<path d="M20.6692 12.5557C21.2853 12.5557 21.7848 12.0481 21.7848 11.4219C21.7848 10.7957 21.2853 10.2881 20.6692 10.2881C20.0532 10.2881 19.5537 10.7957 19.5537 11.4219C19.5537 12.0481 20.0532 12.5557 20.6692 12.5557Z" fill="#2B0A00"/>
</svg>
