<svg width="41" height="32" viewBox="0 0 41 32" fill="none" xmlns="http://www.w3.org/2000/svg">
<path d="M7.65425 31.9176V29.8461C7.65425 29.0538 7.17227 28.5349 6.34493 28.5349C5.93122 28.5349 5.48144 28.6716 5.17219 29.1221C4.9312 28.744 4.5858 28.5349 4.06769 28.5349C3.7223 28.5349 3.3769 28.6394 3.10379 29.0176V28.6032H2.38086V31.9176H3.10379V30.0875C3.10379 29.5002 3.41304 29.2227 3.89499 29.2227C4.37695 29.2227 4.61794 29.5324 4.61794 30.0875V31.9176H5.34086V30.0875C5.34086 29.5002 5.68627 29.2227 6.13204 29.2227C6.61401 29.2227 6.855 29.5324 6.855 30.0875V31.9176H7.65425ZM18.3777 28.6032H17.2049V27.6017H16.482V28.6032H15.8273V29.2589H16.482V30.7793C16.482 31.5395 16.7913 31.986 17.6186 31.986C17.9278 31.986 18.2732 31.8814 18.5142 31.7446L18.3054 31.1212C18.0965 31.2579 17.8556 31.2941 17.6828 31.2941C17.3375 31.2941 17.2009 31.085 17.2009 30.7431V29.2589H18.3737V28.6032H18.3777ZM24.5145 28.5309C24.1009 28.5309 23.8238 28.74 23.651 29.0135V28.5992H22.9281V31.9136H23.651V30.0473C23.651 29.4962 23.892 29.1825 24.3418 29.1825C24.4784 29.1825 24.6511 29.2187 24.7917 29.2509L25.0005 28.559C24.8559 28.5309 24.6511 28.5309 24.5145 28.5309ZM15.241 28.8768C14.8955 28.6354 14.4136 28.5309 13.8955 28.5309C13.0681 28.5309 12.518 28.9452 12.518 29.6008C12.518 30.1518 12.9316 30.4656 13.6545 30.5661L13.9999 30.6023C14.3775 30.6707 14.5863 30.7753 14.5863 30.9482C14.5863 31.1896 14.3092 31.3625 13.8272 31.3625C13.3453 31.3625 12.9637 31.1896 12.7228 31.0166L12.3774 31.5676C12.7549 31.8452 13.273 31.982 13.7911 31.982C14.755 31.982 15.3093 31.5314 15.3093 30.912C15.3093 30.3248 14.8594 30.0151 14.1726 29.9105L13.8272 29.8743C13.518 29.8381 13.277 29.7697 13.277 29.5646C13.277 29.3232 13.518 29.1865 13.8995 29.1865C14.3132 29.1865 14.7269 29.3594 14.9357 29.464L15.241 28.8768ZM34.4749 28.5309C34.0612 28.5309 33.7841 28.74 33.6114 29.0135V28.5992H32.8885V31.9136H33.6114V30.0473C33.6114 29.4962 33.8524 29.1825 34.3022 29.1825C34.4387 29.1825 34.6115 29.2187 34.752 29.2509L34.9608 28.5671C34.8203 28.5309 34.6155 28.5309 34.4749 28.5309ZM25.2375 30.2604C25.2375 31.262 25.9283 31.986 26.9966 31.986C27.4786 31.986 27.824 31.8814 28.1693 31.6079L27.824 31.0207C27.5468 31.2298 27.2737 31.3303 26.9605 31.3303C26.3741 31.3303 25.9604 30.9161 25.9604 30.2604C25.9604 29.637 26.3741 29.2227 26.9605 29.1905C27.2697 29.1905 27.5468 29.2951 27.824 29.5002L28.1693 28.913C27.824 28.6354 27.4786 28.5349 26.9966 28.5349C25.9283 28.5309 25.2375 29.2589 25.2375 30.2604ZM31.9246 30.2604V28.6032H31.2016V29.0176C30.9606 28.7078 30.6153 28.5349 30.1654 28.5349C29.2336 28.5349 28.5107 29.2589 28.5107 30.2604C28.5107 31.262 29.2336 31.986 30.1654 31.986C30.6474 31.986 30.9928 31.813 31.2016 31.5033V31.9176H31.9246V30.2604ZM29.2698 30.2604C29.2698 29.6732 29.6473 29.1905 30.2699 29.1905C30.8562 29.1905 31.2699 29.641 31.2699 30.2604C31.2699 30.8477 30.8562 31.3303 30.2699 31.3303C29.6514 31.2941 29.2698 30.8437 29.2698 30.2604ZM20.6187 28.5309C19.6548 28.5309 18.9641 29.2227 18.9641 30.2564C18.9641 31.2941 19.6548 31.982 20.6549 31.982C21.1369 31.982 21.6188 31.8452 22.0004 31.5314L21.655 31.0126C21.3778 31.2218 21.0324 31.3585 20.6911 31.3585C20.2412 31.3585 19.7954 31.1494 19.691 30.5661H22.1369C22.1369 30.4615 22.1369 30.3932 22.1369 30.2886C22.169 29.2227 21.5465 28.5309 20.6187 28.5309ZM20.6187 29.1543C21.0686 29.1543 21.3778 29.4318 21.4461 29.9467H19.7231C19.7914 29.5002 20.1006 29.1543 20.6187 29.1543ZM38.5795 30.2604V27.292H37.8566V29.0176C37.6156 28.7078 37.2702 28.5349 36.8204 28.5349C35.8886 28.5349 35.1657 29.2589 35.1657 30.2604C35.1657 31.262 35.8886 31.986 36.8204 31.986C37.3024 31.986 37.6477 31.813 37.8566 31.5033V31.9176H38.5795V30.2604ZM35.9248 30.2604C35.9248 29.6732 36.3023 29.1905 36.9248 29.1905C37.5112 29.1905 37.9249 29.641 37.9249 30.2604C37.9249 30.8477 37.5112 31.3303 36.9248 31.3303C36.3023 31.2941 35.9248 30.8437 35.9248 30.2604ZM11.7227 30.2604V28.6032H10.9998V29.0176C10.7588 28.7078 10.4134 28.5349 9.96358 28.5349C9.03182 28.5349 8.30886 29.2589 8.30886 30.2604C8.30886 31.262 9.03182 31.986 9.96358 31.986C10.4456 31.986 10.7909 31.813 10.9998 31.5033V31.9176H11.7227V30.2604ZM9.03583 30.2604C9.03583 29.6732 9.41334 29.1905 10.0359 29.1905C10.6222 29.1905 11.0359 29.641 11.0359 30.2604C11.0359 30.8477 10.6222 31.3303 10.0359 31.3303C9.41334 31.2941 9.03583 30.8437 9.03583 30.2604Z" fill="white"/>
<path d="M25.86 3.43164H15V22.9718H25.86V3.43164Z" fill="#FF5A00"/>
<path d="M15.723 13.2017C15.723 9.23175 17.5866 5.70824 20.4462 3.43166C18.3416 1.77449 15.6869 0.772949 12.7911 0.772949C5.93136 0.772949 0.380859 6.33168 0.380859 13.2017C0.380859 20.0717 5.93136 25.6305 12.7911 25.6305C15.6869 25.6305 18.3416 24.6289 20.4462 22.9718C17.5825 20.7273 15.723 17.1717 15.723 13.2017Z" fill="#EB001B"/>
<path d="M40.5106 13.2017C40.5106 20.0717 34.9601 25.6305 28.1003 25.6305C25.2046 25.6305 22.5499 24.6289 20.4453 22.9718C23.341 20.6911 25.1684 17.1717 25.1684 13.2017C25.1684 9.23175 23.3049 5.70824 20.4453 3.43166C22.5458 1.77449 25.2006 0.772949 28.0963 0.772949C34.9601 0.772949 40.5106 6.36792 40.5106 13.2017Z" fill="#F79E1B"/>
</svg>
