<svg width="86" height="28" viewBox="0 0 86 28" fill="none" xmlns="http://www.w3.org/2000/svg">
<path d="M30.4135 11.916C29.8441 11.916 29.3317 11.8184 28.8762 11.6231C28.4207 11.4198 28.0628 11.1351 27.8025 10.7691C27.5422 10.403 27.412 9.976 27.412 9.48796H28.9006C28.9331 9.85399 29.0754 10.155 29.3276 10.3908C29.5879 10.6267 29.9499 10.7447 30.4135 10.7447C30.8934 10.7447 31.2676 10.6308 31.536 10.403C31.8044 10.1672 31.9386 9.86619 31.9386 9.50016C31.9386 9.21547 31.8532 8.98365 31.6824 8.8047C31.5197 8.62575 31.3123 8.48747 31.0602 8.38986C30.8161 8.29225 30.4745 8.18651 30.0353 8.07263C29.4821 7.92622 29.0307 7.77981 28.6809 7.6334C28.3393 7.47885 28.0465 7.24296 27.8025 6.92573C27.5584 6.60851 27.4364 6.18554 27.4364 5.65682C27.4364 5.16878 27.5584 4.74174 27.8025 4.37571C28.0465 4.00968 28.3881 3.72905 28.8274 3.53383C29.2666 3.33862 29.775 3.24101 30.3525 3.24101C31.174 3.24101 31.8451 3.44843 32.3657 3.86326C32.8944 4.26997 33.1872 4.83122 33.2441 5.54701H31.7068C31.6824 5.23792 31.536 4.97356 31.2676 4.75394C30.9991 4.53432 30.6453 4.42451 30.2061 4.42451C29.8075 4.42451 29.4821 4.52619 29.23 4.72954C28.9778 4.93289 28.8518 5.22572 28.8518 5.60802C28.8518 5.86831 28.929 6.08386 29.0836 6.25467C29.2463 6.41736 29.4496 6.5475 29.6936 6.64511C29.9377 6.74272 30.2712 6.84846 30.6941 6.96234C31.2554 7.11688 31.7109 7.27143 32.0606 7.42598C32.4185 7.58052 32.7195 7.82048 32.9635 8.14584C33.2157 8.46307 33.3418 8.89011 33.3418 9.42695C33.3418 9.85806 33.2238 10.2648 32.9879 10.6471C32.7602 11.0294 32.4226 11.3385 31.9752 11.5743C31.536 11.8021 31.0154 11.916 30.4135 11.916ZM36.3739 3.35082V11.8306H34.983V3.35082H36.3739ZM43.6784 3.35082V4.48552H41.4212V11.8306H40.0302V4.48552H37.7608V3.35082H43.6784ZM46.4779 4.47332V6.96234H49.4062V8.09704H46.4779V10.6959H49.7722V11.8306H45.087V3.33862H49.7722V4.47332H46.4779ZM54.0692 4.86375V2.92378H57.4489V11.8306H55.2771V4.86375H54.0692ZM58.8761 7.25516C58.8761 5.85611 59.1446 4.75394 59.6814 3.94867C60.2264 3.1434 61.1008 2.74076 62.3046 2.74076C63.5085 2.74076 64.3788 3.1434 64.9157 3.94867C65.4606 4.75394 65.7331 5.85611 65.7331 7.25516C65.7331 8.67049 65.4606 9.78079 64.9157 10.5861C64.3788 11.3913 63.5085 11.794 62.3046 11.794C61.1008 11.794 60.2264 11.3913 59.6814 10.5861C59.1446 9.78079 58.8761 8.67049 58.8761 7.25516ZM63.6834 7.25516C63.6834 6.43362 63.5939 5.80323 63.4149 5.364C63.236 4.91662 62.8659 4.69294 62.3046 4.69294C61.7434 4.69294 61.3733 4.91662 61.1943 5.364C61.0154 5.80323 60.9259 6.43362 60.9259 7.25516C60.9259 7.80828 60.9584 8.26785 61.0235 8.63388C61.0886 8.99178 61.2187 9.28461 61.414 9.51236C61.6173 9.73198 61.9142 9.84179 62.3046 9.84179C62.6951 9.84179 62.9879 9.73198 63.1831 9.51236C63.3865 9.28461 63.5207 8.99178 63.5857 8.63388C63.6508 8.26785 63.6834 7.80828 63.6834 7.25516ZM66.8354 7.25516C66.8354 5.85611 67.1038 4.75394 67.6407 3.94867C68.1857 3.1434 69.0601 2.74076 70.2639 2.74076C71.4678 2.74076 72.3381 3.1434 72.875 3.94867C73.4199 4.75394 73.6924 5.85611 73.6924 7.25516C73.6924 8.67049 73.4199 9.78079 72.875 10.5861C72.3381 11.3913 71.4678 11.794 70.2639 11.794C69.0601 11.794 68.1857 11.3913 67.6407 10.5861C67.1038 9.78079 66.8354 8.67049 66.8354 7.25516ZM71.6426 7.25516C71.6426 6.43362 71.5532 5.80323 71.3742 5.364C71.1953 4.91662 70.8252 4.69294 70.2639 4.69294C69.7027 4.69294 69.3326 4.91662 69.1536 5.364C68.9747 5.80323 68.8852 6.43362 68.8852 7.25516C68.8852 7.80828 68.9177 8.26785 68.9828 8.63388C69.0479 8.99178 69.178 9.28461 69.3732 9.51236C69.5766 9.73198 69.8735 9.84179 70.2639 9.84179C70.6544 9.84179 70.9472 9.73198 71.1424 9.51236C71.3458 9.28461 71.48 8.99178 71.545 8.63388C71.6101 8.26785 71.6426 7.80828 71.6426 7.25516ZM74.6239 5.16878C74.6239 4.50992 74.811 4.00154 75.1851 3.64364C75.5674 3.28575 76.0596 3.1068 76.6615 3.1068C77.2634 3.1068 77.7514 3.28575 78.1256 3.64364C78.4998 4.00154 78.6869 4.50992 78.6869 5.16878C78.6869 5.82764 78.4998 6.33601 78.1256 6.69391C77.7514 7.05181 77.2634 7.23076 76.6615 7.23076C76.0596 7.23076 75.5674 7.05181 75.1851 6.69391C74.811 6.33601 74.6239 5.82764 74.6239 5.16878ZM82.9084 3.24101L78.211 11.8306H76.1978L80.8953 3.24101H82.9084ZM76.6493 4.3269C76.2588 4.3269 76.0636 4.60753 76.0636 5.16878C76.0636 5.72189 76.2588 5.99845 76.6493 5.99845C76.8364 5.99845 76.9828 5.92931 77.0885 5.79103C77.1943 5.65275 77.2471 5.44534 77.2471 5.16878C77.2471 4.60753 77.0478 4.3269 76.6493 4.3269ZM80.4316 9.9028C80.4316 9.24394 80.6187 8.73556 80.9929 8.37766C81.367 8.01976 81.8551 7.84081 82.457 7.84081C83.0589 7.84081 83.547 8.01976 83.9211 8.37766C84.2953 8.73556 84.4824 9.24394 84.4824 9.9028C84.4824 10.5617 84.2953 11.07 83.9211 11.4279C83.547 11.7858 83.0589 11.9648 82.457 11.9648C81.8551 11.9648 81.367 11.7858 80.9929 11.4279C80.6187 11.07 80.4316 10.5617 80.4316 9.9028ZM82.4448 9.06092C82.2577 9.06092 82.1113 9.13006 82.0056 9.26834C81.9079 9.40662 81.8591 9.6181 81.8591 9.9028C81.8591 10.4559 82.0544 10.7325 82.4448 10.7325C82.6319 10.7325 82.7783 10.6633 82.884 10.5251C82.9898 10.3868 83.0426 10.1794 83.0426 9.9028C83.0426 9.62624 82.9898 9.41882 82.884 9.28054C82.7783 9.13413 82.6319 9.06092 82.4448 9.06092Z" fill="white"/>
<path d="M31.1384 25.851C30.4618 25.851 29.8529 25.735 29.3117 25.503C28.7704 25.2614 28.3452 24.9231 28.0359 24.4882C27.7266 24.0533 27.5719 23.5459 27.5719 22.9659H29.3407C29.3793 23.4009 29.5485 23.7585 29.8481 24.0388C30.1574 24.3191 30.5875 24.4592 31.1384 24.4592C31.7086 24.4592 32.1532 24.3239 32.4722 24.0533C32.7911 23.773 32.9506 23.4154 32.9506 22.9804C32.9506 22.6422 32.8491 22.3667 32.6462 22.1541C32.4529 21.9414 32.2064 21.7771 31.9068 21.6611C31.6168 21.5452 31.2109 21.4195 30.689 21.2842C30.0317 21.1102 29.4953 20.9363 29.0797 20.7623C28.6738 20.5786 28.3258 20.2984 28.0359 19.9214C27.7459 19.5445 27.6009 19.0419 27.6009 18.4137C27.6009 17.8337 27.7459 17.3263 28.0359 16.8914C28.3258 16.4565 28.7318 16.123 29.2537 15.891C29.7756 15.6591 30.3797 15.5431 31.0659 15.5431C32.0421 15.5431 32.8395 15.7896 33.458 16.2825C34.0863 16.7657 34.4342 17.4326 34.5019 18.2832H32.6752C32.6462 17.9159 32.4722 17.6018 32.1532 17.3408C31.8343 17.0799 31.4138 16.9494 30.8919 16.9494C30.4183 16.9494 30.0317 17.0702 29.7321 17.3118C29.4325 17.5535 29.2827 17.9014 29.2827 18.3557C29.2827 18.6649 29.3745 18.9211 29.5581 19.124C29.7514 19.3173 29.9931 19.472 30.283 19.588C30.573 19.704 30.9693 19.8296 31.4718 19.9649C32.1387 20.1485 32.68 20.3322 33.0956 20.5158C33.5209 20.6995 33.8785 20.9846 34.1684 21.3712C34.468 21.7481 34.6179 22.2556 34.6179 22.8935C34.6179 23.4057 34.4777 23.889 34.1974 24.3432C33.9268 24.7975 33.5257 25.1648 32.9941 25.4451C32.4722 25.7157 31.8536 25.851 31.1384 25.851ZM38.2208 17.0074V19.9649H41.7002V21.3132H38.2208V24.4012H42.1352V25.7495H36.568V15.6591H42.1352V17.0074H38.2208ZM51.4632 18.5731C51.2023 18.0705 50.8398 17.6936 50.3759 17.4423C49.912 17.1813 49.3755 17.0509 48.7666 17.0509C48.0997 17.0509 47.5053 17.2007 46.9834 17.5003C46.4615 17.7999 46.0507 18.2252 45.7511 18.7761C45.4611 19.327 45.3162 19.9649 45.3162 20.6898C45.3162 21.4147 45.4611 22.0574 45.7511 22.618C46.0507 23.1689 46.4615 23.5942 46.9834 23.8938C47.5053 24.1934 48.0997 24.3432 48.7666 24.3432C49.6655 24.3432 50.3952 24.0919 50.9558 23.5893C51.5164 23.0868 51.8595 22.4054 51.9851 21.5452H48.2012V20.2259H53.7539V21.5162C53.6475 22.299 53.3673 23.0191 52.913 23.6763C52.4684 24.3336 51.8836 24.8603 51.1588 25.2566C50.4435 25.6432 49.6462 25.8365 48.7666 25.8365C47.8194 25.8365 46.9544 25.619 46.1715 25.1841C45.3887 24.7395 44.7653 24.1258 44.3013 23.3429C43.8471 22.56 43.6199 21.6756 43.6199 20.6898C43.6199 19.704 43.8471 18.8196 44.3013 18.0367C44.7653 17.2538 45.3887 16.6449 46.1715 16.21C46.9641 15.7654 47.8291 15.5431 48.7666 15.5431C49.8395 15.5431 50.7915 15.8089 51.6227 16.3405C52.4636 16.8624 53.0725 17.6066 53.4494 18.5731H51.4632ZM57.0222 15.6736V22.0961C57.0222 22.8596 57.2203 23.4347 57.6166 23.8213C58.0225 24.2079 58.5831 24.4012 59.2983 24.4012C60.0232 24.4012 60.5838 24.2079 60.9801 23.8213C61.386 23.4347 61.589 22.8596 61.589 22.0961V15.6736H63.2417V22.0671C63.2417 22.8886 63.0629 23.5845 62.7053 24.1548C62.3477 24.725 61.8693 25.1503 61.27 25.4306C60.6708 25.7109 60.0087 25.851 59.2838 25.851C58.559 25.851 57.8969 25.7109 57.2977 25.4306C56.7081 25.1503 56.2393 24.725 55.8914 24.1548C55.5434 23.5845 55.3695 22.8886 55.3695 22.0671V15.6736H57.0222ZM70.6273 25.7495L68.3077 21.7191H67.0464V25.7495H65.3936V15.6736H68.8731C69.6463 15.6736 70.2987 15.8089 70.8303 16.0795C71.3715 16.3501 71.7726 16.7126 72.0336 17.1668C72.3042 17.6211 72.4395 18.1285 72.4395 18.6891C72.4395 19.3463 72.2462 19.9456 71.8596 20.4868C71.4827 21.0184 70.8979 21.3809 70.1054 21.5742L72.599 25.7495H70.6273ZM67.0464 20.3998H68.8731C69.4917 20.3998 69.9556 20.2452 70.2649 19.9359C70.5838 19.6266 70.7433 19.211 70.7433 18.6891C70.7433 18.1672 70.5887 17.7613 70.2794 17.4713C69.9701 17.1717 69.5013 17.0219 68.8731 17.0219H67.0464V20.3998ZM79.1496 25.851C78.2121 25.851 77.3471 25.6335 76.5545 25.1986C75.7716 24.754 75.1482 24.1403 74.6843 23.3574C74.23 22.5648 74.0029 21.6756 74.0029 20.6898C74.0029 19.704 74.23 18.8196 74.6843 18.0367C75.1482 17.2538 75.7716 16.6449 76.5545 16.21C77.3471 15.7654 78.2121 15.5431 79.1496 15.5431C80.0968 15.5431 80.9618 15.7654 81.7447 16.21C82.5373 16.6449 83.1607 17.2538 83.6149 18.0367C84.0692 18.8196 84.2963 19.704 84.2963 20.6898C84.2963 21.6756 84.0692 22.5648 83.6149 23.3574C83.1607 24.1403 82.5373 24.754 81.7447 25.1986C80.9618 25.6335 80.0968 25.851 79.1496 25.851ZM79.1496 24.4157C79.8165 24.4157 80.4109 24.2659 80.9328 23.9663C81.4548 23.657 81.8607 23.2221 82.1506 22.6615C82.4503 22.0912 82.6001 21.434 82.6001 20.6898C82.6001 19.9456 82.4503 19.2932 82.1506 18.7326C81.8607 18.172 81.4548 17.7419 80.9328 17.4423C80.4109 17.1427 79.8165 16.9929 79.1496 16.9929C78.4827 16.9929 77.8883 17.1427 77.3664 17.4423C76.8445 17.7419 76.4337 18.172 76.1341 18.7326C75.8441 19.2932 75.6991 19.9456 75.6991 20.6898C75.6991 21.434 75.8441 22.0912 76.1341 22.6615C76.4337 23.2221 76.8445 23.657 77.3664 23.9663C77.8883 24.2659 78.4827 24.4157 79.1496 24.4157Z" fill="white"/>
<path fill-rule="evenodd" clip-rule="evenodd" d="M14.2862 10.9817V7.70449H14.2865C14.2865 5.73093 12.6869 4.13133 10.7136 4.13133C8.74008 4.13133 7.14048 5.73093 7.14048 7.70449V10.9817H14.2862ZM17.8594 10.9817V7.70449C17.8594 3.75765 14.66 0.558594 10.7135 0.558594C6.76666 0.558594 3.56761 3.75772 3.56761 7.70449V10.9817H2.05342C1.21707 10.9817 0.539062 11.6597 0.539062 12.4961V25.5456C0.539062 26.382 1.21707 27.06 2.05342 27.06H20.4631C21.2995 27.06 21.9775 26.382 21.9775 25.5456V12.4961C21.9775 11.6597 21.2995 10.9817 20.4631 10.9817H17.8594ZM12.1515 21.7008V19.6666C12.6831 19.3571 13.0446 18.7876 13.0446 18.128C13.0446 17.1415 12.2445 16.3414 11.258 16.3414C10.2716 16.3414 9.4715 17.1415 9.4715 18.128C9.4715 18.7875 9.83333 19.3571 10.365 19.6666V21.7008H12.1515Z" fill="white"/>
</svg>
