<svg width="76" height="28" viewBox="0 0 76 28" fill="none" xmlns="http://www.w3.org/2000/svg">
<path d="M27.4403 11.4793C27.0607 11.4793 26.719 11.4142 26.4153 11.2841C26.1116 11.1485 25.873 10.9587 25.6995 10.7146C25.5259 10.4706 25.4391 10.1859 25.4391 9.86049H26.4316C26.4533 10.1045 26.5482 10.3052 26.7163 10.4625C26.8898 10.6197 27.1312 10.6984 27.4403 10.6984C27.7603 10.6984 28.0097 10.6224 28.1887 10.4706C28.3677 10.3133 28.4571 10.1127 28.4571 9.86862C28.4571 9.67881 28.4002 9.52425 28.2863 9.40494C28.1779 9.28563 28.0396 9.19344 27.8714 9.12836C27.7087 9.06328 27.481 8.99278 27.1881 8.91685C26.8193 8.81924 26.5184 8.72162 26.2852 8.624C26.0574 8.52096 25.8622 8.36369 25.6995 8.15218C25.5368 7.94068 25.4554 7.65867 25.4554 7.30617C25.4554 6.98078 25.5368 6.69606 25.6995 6.45202C25.8622 6.20797 26.0899 6.02087 26.3828 5.89072C26.6756 5.76056 27.0146 5.69548 27.3996 5.69548C27.9474 5.69548 28.3948 5.83377 28.7419 6.11036C29.0944 6.38152 29.2896 6.75571 29.3276 7.23295H28.3026C28.2863 7.02687 28.1887 6.85062 28.0097 6.70419C27.8308 6.55777 27.5949 6.48456 27.302 6.48456C27.0363 6.48456 26.8193 6.55235 26.6512 6.68793C26.4831 6.8235 26.399 7.01874 26.399 7.27363C26.399 7.44717 26.4506 7.59088 26.5536 7.70477C26.6621 7.81324 26.7977 7.90001 26.9603 7.96508C27.123 8.03016 27.3454 8.10066 27.6274 8.17659C28.0016 8.27963 28.3053 8.38267 28.5385 8.48571C28.7771 8.58875 28.9778 8.74873 29.1405 8.96566C29.3086 9.17717 29.3926 9.46188 29.3926 9.81981C29.3926 10.1072 29.314 10.3784 29.1567 10.6333C29.0049 10.8882 28.7798 11.0943 28.4816 11.2515C28.1887 11.4034 27.8416 11.4793 27.4403 11.4793ZM31.4143 5.7687V11.4224H30.4869V5.7687H31.4143ZM36.2843 5.7687V6.52523H34.7794V11.4224H33.852V6.52523H32.339V5.7687H36.2843ZM38.1509 6.51709V8.17659H40.1032V8.93312H38.1509V10.6658H40.3473V11.4224H37.2235V5.76056H40.3473V6.51709H38.1509ZM45.4655 11.4793C45.0859 11.4793 44.7442 11.4142 44.4405 11.2841C44.1368 11.1485 43.8982 10.9587 43.7247 10.7146C43.5511 10.4706 43.4643 10.1859 43.4643 9.86049H44.4568C44.4785 10.1045 44.5734 10.3052 44.7415 10.4625C44.915 10.6197 45.1564 10.6984 45.4655 10.6984C45.7855 10.6984 46.0349 10.6224 46.2139 10.4706C46.3929 10.3133 46.4823 10.1127 46.4823 9.86862C46.4823 9.67881 46.4254 9.52425 46.3115 9.40494C46.203 9.28563 46.0648 9.19344 45.8966 9.12836C45.7339 9.06328 45.5062 8.99278 45.2133 8.91685C44.8445 8.81924 44.5436 8.72162 44.3104 8.624C44.0826 8.52096 43.8874 8.36369 43.7247 8.15218C43.562 7.94068 43.4806 7.65867 43.4806 7.30617C43.4806 6.98078 43.562 6.69606 43.7247 6.45202C43.8874 6.20797 44.1151 6.02087 44.408 5.89072C44.7008 5.76056 45.0398 5.69548 45.4248 5.69548C45.9726 5.69548 46.42 5.83377 46.7671 6.11036C47.1196 6.38152 47.3148 6.75571 47.3528 7.23295H46.3278C46.3115 7.02687 46.2139 6.85062 46.0349 6.70419C45.856 6.55777 45.6201 6.48456 45.3272 6.48456C45.0615 6.48456 44.8445 6.55235 44.6764 6.68793C44.5083 6.8235 44.4242 7.01874 44.4242 7.27363C44.4242 7.44717 44.4758 7.59088 44.5788 7.70477C44.6873 7.81324 44.8228 7.90001 44.9855 7.96508C45.1482 8.03016 45.3706 8.10066 45.6526 8.17659C46.0268 8.27963 46.3305 8.38267 46.5637 8.48571C46.8023 8.58875 47.003 8.74873 47.1657 8.96566C47.3338 9.17717 47.4178 9.46188 47.4178 9.81981C47.4178 10.1072 47.3392 10.3784 47.1819 10.6333C47.0301 10.8882 46.805 11.0943 46.5067 11.2515C46.2139 11.4034 45.8668 11.4793 45.4655 11.4793ZM49.4395 6.51709V8.17659H51.3918V8.93312H49.4395V10.6658H51.6358V11.4224H48.5121V5.76056H51.6358V6.51709H49.4395ZM56.8699 7.39565C56.7234 7.11364 56.5201 6.90214 56.2598 6.76114C55.9995 6.61471 55.6985 6.5415 55.3568 6.5415C54.9826 6.5415 54.6491 6.62556 54.3562 6.79368C54.0634 6.9618 53.8329 7.20042 53.6648 7.50954C53.5021 7.81866 53.4207 8.17659 53.4207 8.58333C53.4207 8.99007 53.5021 9.35071 53.6648 9.66525C53.8329 9.97437 54.0634 10.213 54.3562 10.3811C54.6491 10.5492 54.9826 10.6333 55.3568 10.6333C55.8612 10.6333 56.2706 10.4923 56.5852 10.2103C56.8997 9.92828 57.0922 9.54594 57.1627 9.06328H55.0396V8.32301H58.1552V9.04701C58.0955 9.48629 57.9382 9.89031 57.6834 10.2591C57.4339 10.6279 57.1058 10.9234 56.699 11.1458C56.2977 11.3627 55.8503 11.4712 55.3568 11.4712C54.8253 11.4712 54.34 11.3492 53.9007 11.1051C53.4614 10.8556 53.1116 10.5113 52.8513 10.072C52.5964 9.63271 52.469 9.13649 52.469 8.58333C52.469 8.03016 52.5964 7.53394 52.8513 7.09466C53.1116 6.65539 53.4614 6.31373 53.9007 6.06968C54.3454 5.82022 54.8308 5.69548 55.3568 5.69548C55.9588 5.69548 56.493 5.84462 56.9594 6.1429C57.4312 6.43575 57.7728 6.85333 57.9843 7.39565H56.8699ZM59.9891 5.7687V9.3724C59.9891 9.80083 60.1002 10.1235 60.3226 10.3404C60.5504 10.5574 60.8649 10.6658 61.2662 10.6658C61.673 10.6658 61.9875 10.5574 62.2098 10.3404C62.4376 10.1235 62.5515 9.80083 62.5515 9.3724V5.7687H63.4789V9.35613C63.4789 9.8171 63.3785 10.2076 63.1779 10.5275C62.9772 10.8475 62.7088 11.0861 62.3725 11.2434C62.0363 11.4007 61.6648 11.4793 61.2581 11.4793C60.8513 11.4793 60.4799 11.4007 60.1436 11.2434C59.8128 11.0861 59.5498 10.8475 59.3545 10.5275C59.1593 10.2076 59.0617 9.8171 59.0617 9.35613V5.7687H59.9891ZM67.623 11.4224L66.3214 9.1609H65.6137V11.4224H64.6863V5.7687H66.6387C67.0725 5.7687 67.4386 5.84462 67.7369 5.99647C68.0405 6.14832 68.2656 6.35169 68.412 6.60658C68.5639 6.86147 68.6398 7.14618 68.6398 7.46073C68.6398 7.8295 68.5313 8.16574 68.3144 8.46944C68.1029 8.76772 67.7748 8.97108 67.3301 9.07955L68.7293 11.4224H67.623ZM65.6137 8.42063H66.6387C66.9857 8.42063 67.2461 8.33386 67.4196 8.16032C67.5986 7.98678 67.688 7.75358 67.688 7.46073C67.688 7.16788 67.6013 6.9401 67.4277 6.77741C67.2542 6.60929 66.9912 6.52523 66.6387 6.52523H65.6137V8.42063ZM72.4049 11.4793C71.8788 11.4793 71.3935 11.3573 70.9488 11.1132C70.5095 10.8638 70.1597 10.5194 69.8994 10.0801C69.6445 9.63542 69.517 9.13649 69.517 8.58333C69.517 8.03016 69.6445 7.53394 69.8994 7.09466C70.1597 6.65539 70.5095 6.31373 70.9488 6.06968C71.3935 5.82022 71.8788 5.69548 72.4049 5.69548C72.9364 5.69548 73.4217 5.82022 73.861 6.06968C74.3057 6.31373 74.6555 6.65539 74.9104 7.09466C75.1653 7.53394 75.2927 8.03016 75.2927 8.58333C75.2927 9.13649 75.1653 9.63542 74.9104 10.0801C74.6555 10.5194 74.3057 10.8638 73.861 11.1132C73.4217 11.3573 72.9364 11.4793 72.4049 11.4793ZM72.4049 10.674C72.7791 10.674 73.1126 10.5899 73.4055 10.4218C73.6983 10.2482 73.9261 10.0042 74.0888 9.68966C74.2569 9.36969 74.341 9.00091 74.341 8.58333C74.341 8.16574 74.2569 7.79968 74.0888 7.48513C73.9261 7.17059 73.6983 6.92926 73.4055 6.76114C73.1126 6.59302 72.7791 6.50896 72.4049 6.50896C72.0307 6.50896 71.6972 6.59302 71.4043 6.76114C71.1115 6.92926 70.881 7.17059 70.7128 7.48513C70.5502 7.79968 70.4688 8.16574 70.4688 8.58333C70.4688 9.00091 70.5502 9.36969 70.7128 9.68966C70.881 10.0042 71.1115 10.2482 71.4043 10.4218C71.6972 10.5899 72.0307 10.674 72.4049 10.674Z" fill="white"/>
<path d="M27.2305 19.2251C27.3388 19.0815 27.4863 18.9648 27.6731 18.875C27.8635 18.7817 28.0746 18.735 28.3061 18.735C28.5788 18.735 28.8253 18.7979 29.0456 18.9235C29.266 19.0492 29.4397 19.2287 29.5667 19.4621C29.6937 19.6918 29.7572 19.9557 29.7572 20.2537C29.7572 20.5517 29.6937 20.8192 29.5667 21.0562C29.4397 21.2896 29.2641 21.4727 29.04 21.6055C28.8197 21.7348 28.575 21.7994 28.3061 21.7994C28.0671 21.7994 27.8542 21.7545 27.6675 21.6647C27.4844 21.575 27.3388 21.4601 27.2305 21.3201V21.7509H26.5918V17.7656H27.2305V19.2251ZM29.1073 20.2537C29.1073 20.0491 29.0625 19.8732 28.9728 19.726C28.8869 19.5752 28.7711 19.4621 28.6255 19.3867C28.4835 19.3077 28.3304 19.2682 28.1661 19.2682C28.0055 19.2682 27.8523 19.3077 27.7067 19.3867C27.5647 19.4657 27.449 19.5805 27.3593 19.7313C27.2734 19.8821 27.2305 20.0599 27.2305 20.2645C27.2305 20.4692 27.2734 20.6487 27.3593 20.8031C27.449 20.9539 27.5647 21.0687 27.7067 21.1477C27.8523 21.2267 28.0055 21.2662 28.1661 21.2662C28.3304 21.2662 28.4835 21.2267 28.6255 21.1477C28.7711 21.0652 28.8869 20.9467 28.9728 20.7923C29.0625 20.6379 29.1073 20.4584 29.1073 20.2537Z" fill="white"/>
<path d="M33.1675 18.7835L31.2739 23.1458H30.6128L31.2403 21.7024L30.0246 18.7835H30.7361L31.6045 21.0454L32.5064 18.7835H33.1675Z" fill="white"/>
<path d="M52.8477 20.1656C52.8477 22.0203 51.3968 23.3869 49.6162 23.3869C47.8357 23.3869 46.3848 22.0203 46.3848 20.1656C46.3848 18.2979 47.8357 16.9443 49.6162 16.9443C51.3968 16.9443 52.8477 18.2979 52.8477 20.1656ZM51.4331 20.1656C51.4331 19.0067 50.5922 18.2137 49.6162 18.2137C48.6403 18.2137 47.7994 19.0067 47.7994 20.1656C47.7994 21.313 48.6403 22.1176 49.6162 22.1176C50.5922 22.1176 51.4331 21.3115 51.4331 20.1656Z" fill="white"/>
<path d="M59.8184 20.1656C59.8184 22.0203 58.3675 23.3869 56.5869 23.3869C54.8064 23.3869 53.3555 22.0203 53.3555 20.1656C53.3555 18.2994 54.8064 16.9443 56.5869 16.9443C58.3675 16.9443 59.8184 18.2979 59.8184 20.1656ZM58.4038 20.1656C58.4038 19.0067 57.5629 18.2137 56.5869 18.2137C55.6109 18.2137 54.77 19.0067 54.77 20.1656C54.77 21.313 55.6109 22.1176 56.5869 22.1176C57.5629 22.1176 58.4038 21.3115 58.4038 20.1656Z" fill="white"/>
<path d="M66.5015 17.139V22.9222C66.5015 25.3011 65.0986 26.2728 63.44 26.2728C61.8787 26.2728 60.9391 25.2285 60.5847 24.3745L61.8163 23.8619C62.0356 24.3861 62.5729 25.0048 63.4385 25.0048C64.5002 25.0048 65.1581 24.3498 65.1581 23.1168V22.6535H65.1087C64.7921 23.0442 64.1821 23.3855 63.4124 23.3855C61.8017 23.3855 60.3262 21.9825 60.3262 20.1773C60.3262 18.3589 61.8017 16.9443 63.4124 16.9443C64.1807 16.9443 64.7907 17.2856 65.1087 17.6647H65.1581V17.1404H66.5015V17.139ZM65.2583 20.1773C65.2583 19.043 64.5016 18.2137 63.5387 18.2137C62.5628 18.2137 61.7451 19.043 61.7451 20.1773C61.7451 21.2999 62.5628 22.1176 63.5387 22.1176C64.5016 22.1176 65.2583 21.2999 65.2583 20.1773Z" fill="white"/>
<path d="M68.7137 13.7495V23.1898H67.334V13.7495H68.7137Z" fill="white"/>
<path d="M74.091 21.2259L75.1892 21.9578C74.8349 22.4821 73.9809 23.3855 72.5051 23.3855C70.6752 23.3855 69.3086 21.9709 69.3086 20.1642C69.3086 18.2486 70.6869 16.9429 72.3469 16.9429C74.0185 16.9429 74.8363 18.2732 75.1035 18.9922L75.2502 19.3581L70.9439 21.1416C71.2735 21.7879 71.7863 22.1176 72.5051 22.1176C73.2256 22.1176 73.7252 21.7632 74.091 21.2259ZM70.7116 20.0669L73.59 18.8716C73.4318 18.4693 72.9556 18.189 72.395 18.189C71.6759 18.189 70.6752 18.8237 70.7116 20.0669Z" fill="white"/>
<path d="M41.1629 19.3277V17.9611H45.7683C45.8133 18.1993 45.8365 18.481 45.8365 18.786C45.8365 19.8114 45.5562 21.0793 44.6529 21.9826C43.7742 22.8976 42.6515 23.3856 41.1643 23.3856C38.4078 23.3856 36.0898 21.1403 36.0898 18.3837C36.0898 15.6272 38.4078 13.3818 41.1643 13.3818C42.6893 13.3818 43.7757 13.9802 44.5919 14.7601L43.6275 15.7245C43.0422 15.1755 42.2492 14.7485 41.1629 14.7485C39.1499 14.7485 37.5756 16.3708 37.5756 18.3837C37.5756 20.3967 39.1499 22.0189 41.1629 22.0189C42.4685 22.0189 43.2121 21.4946 43.6885 21.0183C44.0748 20.6319 44.329 20.0801 44.4292 19.3263L41.1629 19.3277Z" fill="white"/>
<path d="M10.9383 0.595518C10.9383 0.595518 9.09798 2.5846 7.57693 3.32122C5.45425 4.3492 1.58605 4.08442 1.58605 4.08442C1.25499 4.20908 1.0191 4.54992 1.01978 4.90204L0.964887 16.3678C0.964887 18.7719 2.41262 20.7383 4.28933 22.4099C6.16604 24.0812 8.53443 25.528 10.7098 26.9709C11.0098 27.1842 11.3798 27.1758 11.6778 26.9709C13.8534 25.5282 16.2216 24.0814 18.0983 22.4099C19.975 20.7386 21.4227 18.7722 21.4227 16.3678L21.4776 4.90204C21.4785 4.54992 21.2424 4.20907 20.9113 4.08442C20.9113 4.08442 17.0427 4.34944 14.9199 3.32122C13.3991 2.58457 11.5591 0.595518 11.5591 0.595518C11.338 0.512337 10.9383 0.595518 10.9383 0.595518ZM11.1938 2.75785C11.1938 2.75785 12.8182 4.65685 14.1712 5.34466C16.1157 6.3331 19.6695 5.91966 19.6695 5.91966V16.3678C19.6695 18.0725 18.6331 19.5935 16.9298 21.1106C15.351 22.5166 13.2514 23.8542 11.1943 25.2081C9.13728 23.8542 7.03764 22.5166 5.45893 21.1106C3.75561 19.5935 2.71916 18.0727 2.71916 16.3678V5.91966C2.71916 5.91966 6.32716 6.30821 8.27125 5.32001C9.62431 4.63223 11.1938 2.75785 11.1938 2.75785Z" fill="white"/>
<path d="M6.13477 13.0162L10.1533 16.6694L16.3637 10.459" stroke="white" stroke-width="0.730637" stroke-linecap="round"/>
</svg>
