<svg width="33" height="33" viewBox="0 0 33 33" fill="none" xmlns="http://www.w3.org/2000/svg">
<path d="M16.7836 32.0769C25.5621 32.0769 32.6785 24.9605 32.6785 16.182C32.6785 7.40352 25.5621 0.287109 16.7836 0.287109C8.00509 0.287109 0.888672 7.40352 0.888672 16.182C0.888672 24.9605 8.00509 32.0769 16.7836 32.0769Z" fill="white"/>
<path fill-rule="evenodd" clip-rule="evenodd" d="M17.3086 25.0252H17.3047C15.7229 25.0247 14.1685 24.6278 12.788 23.8748L7.77759 25.1891L9.11846 20.2914C8.29132 18.858 7.85614 17.2321 7.8568 15.5662C7.85892 10.355 12.0989 6.11523 17.3085 6.11523C19.8369 6.11633 22.21 7.10066 23.9945 8.88718C25.779 10.6736 26.7611 13.0483 26.7601 15.5737C26.7581 20.7838 22.5198 25.0231 17.3086 25.0252ZM13.0202 22.1637L13.307 22.3339C14.5132 23.0497 15.8958 23.4284 17.3055 23.429H17.3086C21.6385 23.429 25.1626 19.9048 25.1643 15.5732C25.1652 13.4741 24.3488 11.5004 22.8656 10.0155C21.3824 8.53054 19.41 7.71235 17.3117 7.71162C12.9785 7.71162 9.45437 11.2355 9.45265 15.5668C9.45205 17.0512 9.86737 18.4968 10.6537 19.7475L10.8405 20.0447L10.0469 22.9436L13.0202 22.1637ZM21.7468 17.6086C21.9115 17.6882 22.0228 17.742 22.0703 17.8212C22.1293 17.9197 22.1293 18.3926 21.9326 18.9443C21.7357 19.496 20.7922 19.9994 20.3385 20.0672C19.9316 20.1281 19.4167 20.1534 18.851 19.9736C18.508 19.8648 18.0681 19.7195 17.5047 19.4762C15.2907 18.5202 13.7945 16.3743 13.5117 15.9688C13.4919 15.9403 13.478 15.9205 13.4703 15.9101L13.4684 15.9076C13.3435 15.7409 12.506 14.6235 12.506 13.4672C12.506 12.3793 13.0403 11.8091 13.2863 11.5467C13.3032 11.5287 13.3187 11.5122 13.3325 11.497C13.549 11.2606 13.8049 11.2014 13.9623 11.2014C14.1197 11.2014 14.2773 11.2029 14.415 11.2098C14.4319 11.2107 14.4496 11.2106 14.4678 11.2104C14.6054 11.2096 14.777 11.2086 14.9463 11.6152C15.0114 11.7716 15.1067 12.0036 15.2072 12.2483C15.4104 12.743 15.635 13.2897 15.6744 13.3687C15.7335 13.487 15.7729 13.6249 15.6941 13.7825C15.6823 13.8061 15.6714 13.8284 15.6609 13.8498C15.6018 13.9705 15.5583 14.0593 15.4579 14.1765C15.4185 14.2225 15.3777 14.2722 15.3369 14.3218C15.2557 14.4208 15.1745 14.5197 15.1037 14.5902C14.9855 14.708 14.8624 14.8357 15.0002 15.0722C15.1379 15.3086 15.6119 16.0819 16.3139 16.7082C17.0687 17.3814 17.7246 17.6659 18.0571 17.8101C18.122 17.8383 18.1746 17.861 18.2132 17.8804C18.4492 17.9986 18.587 17.9788 18.7248 17.8212C18.8626 17.6636 19.3152 17.1316 19.4725 16.8952C19.63 16.6589 19.7874 16.6983 20.0039 16.777C20.2205 16.856 21.3815 17.4272 21.6177 17.5454C21.6638 17.5684 21.7069 17.5893 21.7468 17.6086Z" fill="#2B0A00"/>
</svg>
